<svg xmlns="http://www.w3.org/2000/svg" width="180" height="34" viewBox="0 0 180 34" fill="none">
  <path d="M37.504 9.98328C35.9895 9.98328 34.7407 11.1877 34.7407 12.7064V18.4667V24.2271H37.504V18.4667V12.7064H40.7986H44.0933V9.98328H40.7986H37.504Z" fill="#E1E1E6"/>
  <path d="M60.5667 17.0797V12.6808C60.5667 11.1884 59.3445 9.95776 57.8035 9.95776H53.3398H48.876C47.3616 9.95776 46.1128 11.1622 46.1128 12.6808V17.0797V21.4785C46.1128 22.971 47.335 24.2016 48.876 24.2016H53.3398H57.8035C59.318 24.2016 60.5667 22.9972 60.5667 21.4785V17.0797ZM57.8035 17.0797V21.4785H53.3398H48.876V17.0797V12.6808H53.3398H57.8035V17.0797Z" fill="#E1E1E6"/>
  <path d="M66.0928 9.98328C64.5784 9.98328 63.3296 11.1877 63.3296 12.7064V17.1052V21.504C63.3296 22.9965 64.5518 24.2271 66.0928 24.2271L75.8174 24.0962V21.504H66.0928V17.1052V12.7064H75.8174V10.1142L66.0928 9.98328Z" fill="#E1E1E6"/>
  <path d="M91.6553 9.98328H87.909L82.4356 15.7175H81.3463V9.98328H78.583V17.079V24.2009H81.3463V18.4406H82.7279H82.9404L88.6264 24.2009H92.4258L85.1192 16.7648L91.6553 9.98328Z" fill="#E1E1E6"/>
  <path d="M95.7711 21.4785V18.4412L107.462 18.3103V15.7181V12.6808C107.462 11.1884 106.24 9.95776 104.699 9.95776H100.235H95.7711C94.2566 9.95776 93.0078 11.1622 93.0078 12.6808V17.0797V21.4785C93.0078 22.971 94.23 24.2016 95.7711 24.2016L107.462 24.0707V21.4785H95.7711ZM95.7711 12.6808H100.235H104.699V15.7181H101.616H95.7711V12.6808Z" fill="#E1E1E6"/>
  <path d="M114.396 5.82056H113.333L111.633 7.88906V9.95756H109.534V12.6806L111.633 12.6545V21.4783C111.633 22.9708 112.855 24.2014 114.396 24.2014L118.86 24.0705V21.4783H114.396V12.6283L119.258 12.5497V9.95756H114.396V5.82056Z" fill="#E1E1E6"/>
  <path d="M133.818 18.4412C133.818 16.9488 132.596 15.7181 131.055 15.7181H127.574H124.094V12.6808H133.818V10.0887L124.094 9.95776C122.579 9.95776 121.331 11.1622 121.331 12.6808V15.7181C121.331 17.2106 122.553 18.4412 124.094 18.4412H127.574H131.055V21.4785H121.331V24.0707L131.055 24.2016C132.57 24.2016 133.818 22.9972 133.818 21.4785V18.4412Z" fill="#E1E1E6"/>
  <path d="M148.246 9.98328H143.783H139.319C137.804 9.98328 136.556 11.1877 136.556 12.7064V17.1052V21.504C136.556 22.9965 137.778 24.2271 139.319 24.2271L151.01 24.0962V21.504H139.319V18.4667L151.01 18.3358V15.7437V12.7064C151.01 11.1877 149.787 9.98328 148.246 9.98328ZM148.246 15.7175H139.319V12.6802H143.783H148.246V15.7175Z" fill="#E1E1E6"/>
  <path d="M165.464 9.98328L153.773 10.1142V12.7064H165.464V15.7437L153.773 15.8746V18.4667V21.504C153.773 22.9965 154.996 24.2271 156.537 24.2271H161H165.464C166.979 24.2271 168.227 23.0227 168.227 21.504V17.1052V12.7064C168.201 11.1877 166.979 9.98328 165.464 9.98328ZM165.464 21.4778H161H156.537V18.4406H165.464V21.4778Z" fill="#E1E1E6"/>
  <path d="M175.138 12.6281L180.001 12.5495V9.95737H175.138V5.79419H174.076L172.375 7.86269V9.93118H170.276V12.6543L172.375 12.6281V21.4519C172.375 22.9444 173.597 24.175 175.138 24.175L179.602 24.0441V21.4519H175.138V12.6281Z" fill="#E1E1E6"/>
  <path d="M27.4346 0.661553L22.9443 0.00696475C22.8115 -0.0192188 22.6786 0.0331451 22.6255 0.0855121L20.7125 2.54676C20.5796 2.70386 20.553 2.91333 20.6062 3.09662C20.6593 3.2799 20.4999 3.43701 20.3139 3.41082L18.7463 3.07043C18.5072 3.01807 18.2415 3.09662 18.0821 3.30609L11.8647 11.1612C11.7585 11.3183 11.5459 11.3706 11.3599 11.2921L8.9952 10.2447C8.78264 10.14 8.54351 10.1662 8.35752 10.2971L7.16188 11.1088C6.9759 11.2397 6.7102 11.2659 6.49764 11.1612L5.91311 10.8731C5.54113 10.6898 5.08944 10.8993 4.98317 11.2921L4.55805 13.1511C4.45177 13.5962 4.63776 14.0413 5.0363 14.277L5.93967 14.8268L8.83578 16.5811L10.244 17.4452C10.6425 17.6808 11.1473 17.6285 11.4928 17.3405L13.8575 15.2981C14.0435 15.141 14.3357 15.0887 14.5483 15.2196L15.2657 15.5862C15.5048 15.7171 15.7971 15.6647 15.983 15.4814L17.1787 14.3817C17.3647 14.1984 17.6569 14.1723 17.8695 14.277L19.6497 15.0887C19.9154 15.2196 20.2342 15.141 20.4202 14.9054L21.2439 13.8581L27.4877 5.97681C27.78 5.61024 27.594 5.06038 27.1158 4.95565L25.7341 4.64145C25.4419 4.58908 25.309 4.22251 25.5216 4.01304L27.6737 1.3685C27.8863 1.0543 27.7534 0.71392 27.4346 0.661553Z" fill="#8257E5"/>
  <path d="M6.84272 16.5287C6.70987 16.4502 6.57702 16.5811 6.63016 16.712L7.2944 18.4401C7.34754 18.571 7.34754 18.7019 7.32097 18.8329L6.73644 21.0846C6.70987 21.2417 6.76301 21.3988 6.86929 21.4774L8.54318 22.7604C8.7026 22.8651 8.91516 22.8651 9.04801 22.7342L10.8016 21.2156C10.9079 21.137 11.0407 21.0847 11.147 21.0585L13.1397 20.849C13.2726 20.8228 13.3257 20.6395 13.1929 20.561L6.84272 16.5287Z" fill="#8257E5"/>
  <path d="M6.25837 22.3419C6.1521 22.2634 5.99268 22.2372 5.85983 22.2896L4.45163 22.9703C4.37192 22.9965 4.31878 23.0751 4.26564 23.1536L1.26326 30.4588C1.26326 30.485 1.26326 30.485 1.26326 30.5112C1.28983 30.5374 1.3164 30.5636 1.36954 30.5636L2.06036 30.3017C2.08693 30.3017 2.11349 30.3017 2.14006 30.3017C2.16663 30.3279 2.1932 30.3803 2.16663 30.4065L0.0144825 33.8889C-0.038657 33.9674 0.0676245 34.046 0.120764 33.9674L7.9057 26.2695C7.98541 26.1909 8.01198 26.1124 8.03855 26.0076L8.19797 24.0177C8.19797 23.8868 8.14483 23.782 8.06512 23.7035L6.25837 22.3419Z" fill="#8257E5"/>
  </svg>