<svg width="100" height="100" viewBox="0 0 100 100" fill="none" xmlns="http://www.w3.org/2000/svg">
<path d="M37.5 42.5781V41.4062C37.5 38.5078 39.4531 36.1328 42.2344 35.4316L76.334 26.3144C76.9119 26.1598 77.5176 26.14 78.1044 26.2564C78.6912 26.3729 79.2433 26.6226 79.7184 26.9863C80.1934 27.35 80.5785 27.8179 80.8441 28.3539C81.1096 28.89 81.2485 29.4799 81.25 30.0781V34.375" stroke="#7C56B4" stroke-width="7" stroke-linecap="round" stroke-linejoin="round"/>
<path d="M81.25 57.8008V73.4258C81.25 76.1426 79.5059 78.4238 76.9531 79.2852L72.6562 80.8477C67.5977 82.5508 62.5 78.8125 62.5 73.4258C62.4883 72.0421 62.9173 70.6905 63.725 69.5669C64.5326 68.4432 65.6769 67.6058 66.9922 67.1758L76.9531 63.6309C79.5059 62.7715 81.25 60.5176 81.25 57.8008ZM81.25 57.8008V11.3281C81.2486 11.0291 81.1786 10.7344 81.0453 10.4667C80.9121 10.199 80.7191 9.96549 80.4814 9.78414C80.2436 9.6028 79.9674 9.47847 79.674 9.42074C79.3805 9.36302 79.0778 9.37343 78.7891 9.45118L39.8438 19.9219C39.1645 20.1137 38.5671 20.5235 38.1436 21.0882C37.7201 21.6529 37.494 22.3411 37.5 23.0469V67.1875C37.5 69.9043 35.7559 72.1875 33.2031 73.0469L23.0469 76.5625C20.3359 77.4766 18.75 79.9258 18.75 82.8125C18.75 88.1992 23.9297 91.9043 28.9062 90.2344L33.2031 88.6719C35.7559 87.8125 37.5 85.5313 37.5 82.8125V67.1875" stroke="#7C56B4" stroke-width="7" stroke-linecap="round" stroke-linejoin="round"/>
</svg>
